<svg xmlns="http://www.w3.org/2000/svg" style="display:none;">
    <!-- 肉球 -->
    <symbol id="icon-paw" viewBox="0 0 26 28">
        <path fill="currentColor" d="M12.187 7.375c0 1.75-0.906 3.828-2.922 3.828-2.531 0-4.062-3.187-4.062-5.375 0-1.75 0.906-3.828 2.922-3.828 2.547 0 4.062 3.187 4.062 5.375zM6.844 14.922c0 1.516-0.797 3.094-2.516 3.094-2.5 0-4.328-3.063-4.328-5.328 0-1.516 0.812-3.109 2.516-3.109 2.5 0 4.328 3.078 4.328 5.344zM13 14.5c3.828 0 9 5.516 9 9.203 0 1.984-1.625 2.297-3.219 2.297-2.094 0-3.781-1.406-5.781-1.406-2.094 0-3.875 1.391-6.141 1.391-1.516 0-2.859-0.516-2.859-2.281 0-3.703 5.172-9.203 9-9.203zM16.734 11.203c-2.016 0-2.922-2.078-2.922-3.828 0-2.188 1.516-5.375 4.062-5.375 2.016 0 2.922 2.078 2.922 3.828 0 2.188-1.531 5.375-4.062 5.375zM23.484 9.578c1.703 0 2.516 1.594 2.516 3.109 0 2.266-1.828 5.328-4.328 5.328-1.719 0-2.516-1.578-2.516-3.094 0-2.266 1.828-5.344 4.328-5.344z"></path>
    </symbol>

    <!-- メールアドレス -->
    <symbol id="icon-mail" viewBox="0 0 32 32">
        <path fill="currentColor" srtoke="#5293FF" d="M28 5h-24c-2.209 0-4 1.792-4 4v13c0 2.209 1.791 4 4 4h24c2.209 0 4-1.791 4-4v-13c0-2.208-1.791-4-4-4zM2 10.25l6.999 5.25-6.999 5.25v-10.5zM30 22c0 1.104-0.898 2-2 2h-24c-1.103 0-2-0.896-2-2l7.832-5.875 4.368 3.277c0.533 0.398 1.166 0.6 1.8 0.6 0.633 0 1.266-0.201 1.799-0.6l4.369-3.277 7.832 5.875zM30 20.75l-7-5.25 7-5.25v10.5zM17.199 18.602c-0.349 0.262-0.763 0.4-1.199 0.4s-0.851-0.139-1.2-0.4l-12.8-9.602c0-1.103 0.897-2 2-2h24c1.102 0 2 0.897 2 2l-12.801 9.602z"></path>
    </symbol>

    <!-- パスワード -->
    <symbol id="icon-key" viewBox="0 0 32 32">
        <path fill="currentColor" srtoke="#5293FF" d="M22.004 0c-5.523 0-10 4.478-10 10 0 1.285 0.269 2.501 0.713 3.629l-12.149 12.148c-0.351 0.352-0.568 0.686-0.568 1.223v3c0 1.070 0.929 2 2 2h3c0.536 0 0.875-0.215 1.226-0.564l1.435-1.436h2.343c1.104 0 2-0.896 2-2v-2h2c1.104 0 2-0.896 2-2v-2.344l2.369-2.371c1.129 0.445 2.344 0.715 3.631 0.715 5.521 0 10-4.478 10-10s-4.479-10-10-10zM22.004 18c-1.48 0-2.852-0.43-4.041-1.132l-0.344 0.343-3.030 3.031c-0.375 0.375-0.586 0.883-0.586 1.414v2.344h-2c-1.104 0-2 0.895-2 2v2h-2.342c-0.53 0-1.039 0.211-1.414 0.586l-1.418 1.418-2.826-0.004-0.003-2.85 11.665-11.644c0 0 0 0.001 0.001 0.002l1.469-1.469c-0.702-1.189-1.132-2.56-1.132-4.040 0-4.418 3.583-8 8-8s8 3.582 8 8-3.581 8.001-7.999 8.001zM27.82 8.239c-1.121-1.562-2.486-2.925-4.055-4.054-0.255-0.185-0.585-0.231-0.882-0.127-1.389 0.489-2.34 1.439-2.826 2.828-0.037 0.104-0.055 0.212-0.055 0.319 0 0.199 0.062 0.396 0.182 0.563 1.125 1.564 2.488 2.928 4.053 4.053 0.256 0.184 0.584 0.231 0.881 0.128 1.391-0.486 2.342-1.438 2.83-2.828 0.037-0.104 0.055-0.212 0.055-0.319-0.001-0.199-0.064-0.396-0.183-0.563zM24.82 11.010c-1.478-1.063-2.765-2.35-3.82-3.793 0.387-1.103 1.111-1.827 2.182-2.221 1.479 1.065 2.764 2.349 3.816 3.811-0.391 1.095-1.113 1.815-2.178 2.203z"></path>
    </symbol>
</svg>